<svg viewBox="0 0 140 140" xmlns="http://www.w3.org/2000/svg"><g fill="none" fill-rule="evenodd"><rect fill="#f8e297" height="140" rx="8" width="140"/><path d="m0 .01265514v90.97468976h37.024647c12.0673248.2910196 23.703039-4.4483993 32.0668684-13.0613662 8.5652326-8.6300058 13.2186915-20.3340178 12.8924132-32.4259787.3259615-12.0919057-4.3274505-23.7957996-12.8924132-32.4259787-8.3638294-8.61296691-19.9995436-13.35238583-32.0668684-13.06136616zm21.1581137 70.96025796v-50.953949h15.8692694c6.6526852-.2615832 13.1088963 2.262547 17.7845259 6.9530656 4.6879735 5.0197008 7.1417269 11.6925988 6.8101055 18.5198476.3322422 6.8273418-2.1215959 13.5004702-6.8101055 18.5198475-4.6752461 4.6910926-11.1317243 7.2153273-17.7845259 6.9530656h-15.8692694z" fill="#000" fill-rule="nonzero" transform="translate(58 49)"/></g></svg>